<svg id="visual" viewBox="0 0 900 600" width="900" height="600" xmlns="http://www.w3.org/2000/svg" xmlns:xlink="http://www.w3.org/1999/xlink" version="1.1"><rect x="0" y="0" width="900" height="600" fill="#427BFF"></rect><path d="M0 371L21.5 378.5C43 386 86 401 128.8 397.5C171.7 394 214.3 372 257.2 372.2C300 372.3 343 394.7 385.8 405C428.7 415.3 471.3 413.7 514.2 412.2C557 410.7 600 409.3 642.8 409.2C685.7 409 728.3 410 771.2 408.7C814 407.3 857 403.7 878.5 401.8L900 400L900 601L878.5 601C857 601 814 601 771.2 601C728.3 601 685.7 601 642.8 601C600 601 557 601 514.2 601C471.3 601 428.7 601 385.8 601C343 601 300 601 257.2 601C214.3 601 171.7 601 128.8 601C86 601 43 601 21.5 601L0 601Z" fill="#985cf2"></path><path d="M0 434L21.5 429.5C43 425 86 416 128.8 414.5C171.7 413 214.3 419 257.2 423.7C300 428.3 343 431.7 385.8 429.8C428.7 428 471.3 421 514.2 415.8C557 410.7 600 407.3 642.8 410.5C685.7 413.7 728.3 423.3 771.2 428.3C814 433.3 857 433.7 878.5 433.8L900 434L900 601L878.5 601C857 601 814 601 771.2 601C728.3 601 685.7 601 642.8 601C600 601 557 601 514.2 601C471.3 601 428.7 601 385.8 601C343 601 300 601 257.2 601C214.3 601 171.7 601 128.8 601C86 601 43 601 21.5 601L0 601Z" fill="#4f64d9"></path><path d="M0 463L21.5 464.7C43 466.3 86 469.7 128.8 470C171.7 470.3 214.3 467.7 257.2 465C300 462.3 343 459.7 385.8 457.5C428.7 455.3 471.3 453.7 514.2 457.3C557 461 600 470 642.8 475.8C685.7 481.7 728.3 484.3 771.2 479.2C814 474 857 461 878.5 454.5L900 448L900 601L878.5 601C857 601 814 601 771.2 601C728.3 601 685.7 601 642.8 601C600 601 557 601 514.2 601C471.3 601 428.7 601 385.8 601C343 601 300 601 257.2 601C214.3 601 171.7 601 128.8 601C86 601 43 601 21.5 601L0 601Z" fill="#0061b3"></path><path d="M0 488L21.5 488C43 488 86 488 128.8 496C171.7 504 214.3 520 257.2 519.7C300 519.3 343 502.7 385.8 502.7C428.7 502.7 471.3 519.3 514.2 528C557 536.7 600 537.3 642.8 538C685.7 538.7 728.3 539.3 771.2 531C814 522.7 857 505.3 878.5 496.7L900 488L900 601L878.5 601C857 601 814 601 771.2 601C728.3 601 685.7 601 642.8 601C600 601 557 601 514.2 601C471.3 601 428.7 601 385.8 601C343 601 300 601 257.2 601C214.3 601 171.7 601 128.8 601C86 601 43 601 21.5 601L0 601Z" fill="#005686"></path><path d="M0 559L21.5 555.8C43 552.7 86 546.3 128.8 547.3C171.7 548.3 214.3 556.7 257.2 562C300 567.3 343 569.7 385.8 566.5C428.7 563.3 471.3 554.7 514.2 553C557 551.3 600 556.7 642.8 557.8C685.7 559 728.3 556 771.2 556C814 556 857 559 878.5 560.5L900 562L900 601L878.5 601C857 601 814 601 771.2 601C728.3 601 685.7 601 642.8 601C600 601 557 601 514.2 601C471.3 601 428.7 601 385.8 601C343 601 300 601 257.2 601C214.3 601 171.7 601 128.8 601C86 601 43 601 21.5 601L0 601Z" fill="#1f4659"></path></svg>