<svg id="visual" viewBox="0 0 900 450" width="900" height="450" xmlns="http://www.w3.org/2000/svg" xmlns:xlink="http://www.w3.org/1999/xlink" version="1.1"><rect x="0" y="0" width="900" height="450" fill="#427BFF"></rect><path d="M0 311L18.8 313.3C37.7 315.7 75.3 320.3 112.8 321.8C150.3 323.3 187.7 321.7 225.2 315C262.7 308.3 300.3 296.7 337.8 290.8C375.3 285 412.7 285 450.2 285C487.7 285 525.3 285 562.8 290C600.3 295 637.7 305 675.2 308.7C712.7 312.3 750.3 309.7 787.8 304.5C825.3 299.3 862.7 291.7 881.3 287.8L900 284L900 451L881.3 451C862.7 451 825.3 451 787.8 451C750.3 451 712.7 451 675.2 451C637.7 451 600.3 451 562.8 451C525.3 451 487.7 451 450.2 451C412.7 451 375.3 451 337.8 451C300.3 451 262.7 451 225.2 451C187.7 451 150.3 451 112.8 451C75.3 451 37.7 451 18.8 451L0 451Z" fill="#6d0cff"></path><path d="M0 344L18.8 344.5C37.7 345 75.3 346 112.8 346.8C150.3 347.7 187.7 348.3 225.2 341.7C262.7 335 300.3 321 337.8 314.8C375.3 308.7 412.7 310.3 450.2 314.3C487.7 318.3 525.3 324.7 562.8 328.3C600.3 332 637.7 333 675.2 335.2C712.7 337.3 750.3 340.7 787.8 337.5C825.3 334.3 862.7 324.7 881.3 319.8L900 315L900 451L881.3 451C862.7 451 825.3 451 787.8 451C750.3 451 712.7 451 675.2 451C637.7 451 600.3 451 562.8 451C525.3 451 487.7 451 450.2 451C412.7 451 375.3 451 337.8 451C300.3 451 262.7 451 225.2 451C187.7 451 150.3 451 112.8 451C75.3 451 37.7 451 18.8 451L0 451Z" fill="#2944e6"></path><path d="M0 354L18.8 352C37.7 350 75.3 346 112.8 347.7C150.3 349.3 187.7 356.7 225.2 359.5C262.7 362.3 300.3 360.7 337.8 359.2C375.3 357.7 412.7 356.3 450.2 353.2C487.7 350 525.3 345 562.8 341.5C600.3 338 637.7 336 675.2 341.5C712.7 347 750.3 360 787.8 362.5C825.3 365 862.7 357 881.3 353L900 349L900 451L881.3 451C862.7 451 825.3 451 787.8 451C750.3 451 712.7 451 675.2 451C637.7 451 600.3 451 562.8 451C525.3 451 487.7 451 450.2 451C412.7 451 375.3 451 337.8 451C300.3 451 262.7 451 225.2 451C187.7 451 150.3 451 112.8 451C75.3 451 37.7 451 18.8 451L0 451Z" fill="#0053c1"></path><path d="M0 402L18.8 397.8C37.7 393.7 75.3 385.3 112.8 380.2C150.3 375 187.7 373 225.2 377.2C262.7 381.3 300.3 391.7 337.8 395.2C375.3 398.7 412.7 395.3 450.2 390.8C487.7 386.3 525.3 380.7 562.8 380.8C600.3 381 637.7 387 675.2 386.7C712.7 386.3 750.3 379.7 787.8 380.5C825.3 381.3 862.7 389.7 881.3 393.8L900 398L900 451L881.3 451C862.7 451 825.3 451 787.8 451C750.3 451 712.7 451 675.2 451C637.7 451 600.3 451 562.8 451C525.3 451 487.7 451 450.2 451C412.7 451 375.3 451 337.8 451C300.3 451 262.7 451 225.2 451C187.7 451 150.3 451 112.8 451C75.3 451 37.7 451 18.8 451L0 451Z" fill="#005290"></path><path d="M0 404L18.8 405.5C37.7 407 75.3 410 112.8 413.5C150.3 417 187.7 421 225.2 419.2C262.7 417.3 300.3 409.7 337.8 407.3C375.3 405 412.7 408 450.2 411C487.7 414 525.3 417 562.8 417.7C600.3 418.3 637.7 416.7 675.2 414.2C712.7 411.7 750.3 408.3 787.8 405.7C825.3 403 862.7 401 881.3 400L900 399L900 451L881.3 451C862.7 451 825.3 451 787.8 451C750.3 451 712.7 451 675.2 451C637.7 451 600.3 451 562.8 451C525.3 451 487.7 451 450.2 451C412.7 451 375.3 451 337.8 451C300.3 451 262.7 451 225.2 451C187.7 451 150.3 451 112.8 451C75.3 451 37.7 451 18.8 451L0 451Z" fill="#1f4659"></path></svg>