<svg id="visual" viewBox="0 0 900 600" width="900" height="600" xmlns="http://www.w3.org/2000/svg" xmlns:xlink="http://www.w3.org/1999/xlink" version="1.1"><rect x="0" y="0" width="900" height="600" fill="#294BC6"></rect><defs><linearGradient id="grad1_0" x1="33.3%" y1="0%" x2="100%" y2="100%"><stop offset="20%" stop-color="#294bc6" stop-opacity="1"></stop><stop offset="80%" stop-color="#294bc6" stop-opacity="1"></stop></linearGradient></defs><defs><linearGradient id="grad2_0" x1="0%" y1="0%" x2="66.7%" y2="100%"><stop offset="20%" stop-color="#294bc6" stop-opacity="1"></stop><stop offset="80%" stop-color="#294bc6" stop-opacity="1"></stop></linearGradient></defs><g transform="translate(900, 0)"><path d="M0 243.4C-19.9 236 -39.8 228.6 -60 224.1C-80.3 219.6 -101 218 -121.7 210.8C-142.3 203.5 -162.9 190.5 -170.4 170.4C-177.9 150.3 -172.4 123 -181 104.5C-189.6 86 -212.3 76.3 -225.1 60.3C-237.8 44.4 -240.6 22.2 -243.4 0L0 0Z" fill="#3B5CC5"></path></g><g transform="translate(0, 600)"><path d="M0 -243.4C18.8 -232.1 37.5 -220.8 58 -216.4C78.4 -211.9 100.5 -214.4 120 -207.8C139.5 -201.3 156.3 -185.8 169 -169C181.7 -152.2 190.3 -134 201.8 -116.5C213.3 -99 227.7 -82.3 235.1 -63C242.5 -43.7 242.9 -21.8 243.4 0L0 0Z" fill="#3B5CC5"></path></g></svg>