<svg id="visual" viewBox="0 0 900 600" width="900" height="600" xmlns="http://www.w3.org/2000/svg" xmlns:xlink="http://www.w3.org/1999/xlink" version="1.1"><rect x="0" y="0" width="900" height="600" fill="#007bff"></rect><path d="M0 352L13.7 356.7C27.3 361.3 54.7 370.7 82 377.8C109.3 385 136.7 390 163.8 383C191 376 218 357 245.2 357.2C272.3 357.3 299.7 376.7 327 381C354.3 385.3 381.7 374.7 409 363.5C436.3 352.3 463.7 340.7 491 339.5C518.3 338.3 545.7 347.7 573 352.5C600.3 357.3 627.7 357.7 654.8 356.2C682 354.7 709 351.3 736.2 347.7C763.3 344 790.7 340 818 346C845.3 352 872.7 368 886.3 376L900 384L900 601L886.3 601C872.7 601 845.3 601 818 601C790.7 601 763.3 601 736.2 601C709 601 682 601 654.8 601C627.7 601 600.3 601 573 601C545.7 601 518.3 601 491 601C463.7 601 436.3 601 409 601C381.7 601 354.3 601 327 601C299.7 601 272.3 601 245.2 601C218 601 191 601 163.8 601C136.7 601 109.3 601 82 601C54.7 601 27.3 601 13.7 601L0 601Z" fill="#6600ff"></path><path d="M0 383L13.7 381C27.3 379 54.7 375 82 378.5C109.3 382 136.7 393 163.8 398.3C191 403.7 218 403.3 245.2 399.7C272.3 396 299.7 389 327 389.2C354.3 389.3 381.7 396.7 409 396.3C436.3 396 463.7 388 491 385C518.3 382 545.7 384 573 392.7C600.3 401.3 627.7 416.7 654.8 422.8C682 429 709 426 736.2 424.5C763.3 423 790.7 423 818 422.7C845.3 422.3 872.7 421.7 886.3 421.3L900 421L900 601L886.3 601C872.7 601 845.3 601 818 601C790.7 601 763.3 601 736.2 601C709 601 682 601 654.8 601C627.7 601 600.3 601 573 601C545.7 601 518.3 601 491 601C463.7 601 436.3 601 409 601C381.7 601 354.3 601 327 601C299.7 601 272.3 601 245.2 601C218 601 191 601 163.8 601C136.7 601 109.3 601 82 601C54.7 601 27.3 601 13.7 601L0 601Z" fill="#2f3dec"></path><path d="M0 449L13.7 450C27.3 451 54.7 453 82 446.8C109.3 440.7 136.7 426.3 163.8 428.2C191 430 218 448 245.2 447.8C272.3 447.7 299.7 429.3 327 425.3C354.3 421.3 381.7 431.7 409 434.2C436.3 436.7 463.7 431.3 491 429C518.3 426.7 545.7 427.3 573 428.3C600.3 429.3 627.7 430.7 654.8 433C682 435.3 709 438.7 736.2 435.5C763.3 432.3 790.7 422.7 818 423.5C845.3 424.3 872.7 435.7 886.3 441.3L900 447L900 601L886.3 601C872.7 601 845.3 601 818 601C790.7 601 763.3 601 736.2 601C709 601 682 601 654.8 601C627.7 601 600.3 601 573 601C545.7 601 518.3 601 491 601C463.7 601 436.3 601 409 601C381.7 601 354.3 601 327 601C299.7 601 272.3 601 245.2 601C218 601 191 601 163.8 601C136.7 601 109.3 601 82 601C54.7 601 27.3 601 13.7 601L0 601Z" fill="#004dd1"></path><path d="M0 484L13.7 480.5C27.3 477 54.7 470 82 473.7C109.3 477.3 136.7 491.7 163.8 495.2C191 498.7 218 491.3 245.2 486C272.3 480.7 299.7 477.3 327 477.5C354.3 477.7 381.7 481.3 409 482.3C436.3 483.3 463.7 481.7 491 476.5C518.3 471.3 545.7 462.7 573 464C600.3 465.3 627.7 476.7 654.8 476.2C682 475.7 709 463.3 736.2 457.3C763.3 451.3 790.7 451.7 818 458.7C845.3 465.7 872.7 479.3 886.3 486.2L900 493L900 601L886.3 601C872.7 601 845.3 601 818 601C790.7 601 763.3 601 736.2 601C709 601 682 601 654.8 601C627.7 601 600.3 601 573 601C545.7 601 518.3 601 491 601C463.7 601 436.3 601 409 601C381.7 601 354.3 601 327 601C299.7 601 272.3 601 245.2 601C218 601 191 601 163.8 601C136.7 601 109.3 601 82 601C54.7 601 27.3 601 13.7 601L0 601Z" fill="#0054b0"></path><path d="M0 509L13.7 508.2C27.3 507.3 54.7 505.7 82 504.2C109.3 502.7 136.7 501.3 163.8 507.2C191 513 218 526 245.2 532.2C272.3 538.3 299.7 537.7 327 533.7C354.3 529.7 381.7 522.3 409 521.2C436.3 520 463.7 525 491 521.2C518.3 517.3 545.7 504.7 573 505.7C600.3 506.7 627.7 521.3 654.8 527.5C682 533.7 709 531.3 736.2 527C763.3 522.7 790.7 516.3 818 511.8C845.3 507.3 872.7 504.7 886.3 503.3L900 502L900 601L886.3 601C872.7 601 845.3 601 818 601C790.7 601 763.3 601 736.2 601C709 601 682 601 654.8 601C627.7 601 600.3 601 573 601C545.7 601 518.3 601 491 601C463.7 601 436.3 601 409 601C381.7 601 354.3 601 327 601C299.7 601 272.3 601 245.2 601C218 601 191 601 163.8 601C136.7 601 109.3 601 82 601C54.7 601 27.3 601 13.7 601L0 601Z" fill="#005085"></path><path d="M0 576L13.7 568.7C27.3 561.3 54.7 546.7 82 543.8C109.3 541 136.7 550 163.8 553.8C191 557.7 218 556.3 245.2 553C272.3 549.7 299.7 544.3 327 547.8C354.3 551.3 381.7 563.7 409 565.2C436.3 566.7 463.7 557.3 491 553.5C518.3 549.7 545.7 551.3 573 556.3C600.3 561.3 627.7 569.7 654.8 570.2C682 570.7 709 563.3 736.2 562.8C763.3 562.3 790.7 568.7 818 567C845.3 565.3 872.7 555.7 886.3 550.8L900 546L900 601L886.3 601C872.7 601 845.3 601 818 601C790.7 601 763.3 601 736.2 601C709 601 682 601 654.8 601C627.7 601 600.3 601 573 601C545.7 601 518.3 601 491 601C463.7 601 436.3 601 409 601C381.7 601 354.3 601 327 601C299.7 601 272.3 601 245.2 601C218 601 191 601 163.8 601C136.7 601 109.3 601 82 601C54.7 601 27.3 601 13.7 601L0 601Z" fill="#1f4659"></path></svg>